<?xml version="1.0" standalone="no"?><!DOCTYPE svg PUBLIC "-//W3C//DTD SVG 1.1//EN" "http://www.w3.org/Graphics/SVG/1.1/DTD/svg11.dtd"><svg t="1543845185173" class="icon" style="" viewBox="0 0 1058 1024" version="1.1" xmlns="http://www.w3.org/2000/svg" p-id="4250" xmlns:xlink="http://www.w3.org/1999/xlink" width="206.640625" height="200"><defs><style type="text/css"></style></defs><path d="M1006.644098 1024H28.124173c-15.348524 0-27.835376-12.486852-27.835376-27.835376V27.836353c0-15.348524 12.486852-27.835376 27.835376-27.835376H1006.644098c15.348524 0 27.835376 12.486852 27.835376 27.835376v968.329248c0 15.347547-12.486852 27.834399-27.835376 27.834399z m-962.404708-43.950594H990.528881V43.95157H44.23939v936.097836z" p-id="4251"></path><path d="M22.264093 201.673648H1012.504177v43.950593H22.264093zM22.264093 303.24347H1012.504177v43.950594H22.264093zM22.264093 842.344383h980.049407v43.950593H22.264093z" p-id="4252"></path><path d="M207.821547 325.218767h43.950594v539.101889h-43.950594zM776.223832 325.218767h43.950594v539.101889h-43.950594zM463.212587 155.924986c0 2.074468-3.318758 3.756311-7.413 3.756311H265.53356c-4.094242 0-7.413-1.681843-7.413-3.756311V90.189548c0-2.074468 3.318758-3.756311 7.413-3.75631h190.266027c4.094242 0 7.413 1.681843 7.413 3.75631v65.735438z" p-id="4253"></path></svg>