<?xml version="1.0" standalone="no"?><!DOCTYPE svg PUBLIC "-//W3C//DTD SVG 1.1//EN" "http://www.w3.org/Graphics/SVG/1.1/DTD/svg11.dtd"><svg t="1543845162678" class="icon" style="" viewBox="0 0 1024 1024" version="1.1" xmlns="http://www.w3.org/2000/svg" p-id="4134" xmlns:xlink="http://www.w3.org/1999/xlink" width="200" height="200"><defs><style type="text/css"></style></defs><path d="M863.719038 159.366637l-705.295378 0c-48.443315 0-88.129176 39.690978-88.129176 88.161922l0 528.943904c0 48.474015 39.685861 88.161922 88.129176 88.161922l705.295378 0c48.443315 0 88.134293-39.687908 88.134293-88.161922l0-528.943904C951.853331 199.056592 912.162354 159.366637 863.719038 159.366637M643.272277 776.472464l-484.84964 0 0-176.324868 484.84964 0L643.272277 776.472464zM643.272277 556.053332l-484.84964 0 0-176.296215 484.84964 0L643.272277 556.053332zM863.719038 776.472464 687.394171 776.472464l0-396.659065 176.324868 0L863.719038 776.472464z" p-id="4135"></path></svg>