<?xml version="1.0" standalone="no"?><!DOCTYPE svg PUBLIC "-//W3C//DTD SVG 1.1//EN" "http://www.w3.org/Graphics/SVG/1.1/DTD/svg11.dtd"><svg t="1541414482366" class="icon" style="" viewBox="0 0 1068 1024" version="1.1" xmlns="http://www.w3.org/2000/svg" p-id="3667" xmlns:xlink="http://www.w3.org/1999/xlink" width="208.59375" height="200"><defs><style type="text/css"></style></defs><path d="M939.903382 0H128.618357C56.888889 0 0 56.888889 0 128.618357v576.309179c0 71.729469 56.888889 128.618357 128.618357 128.618358H939.903382c71.729469 0 128.618357-56.888889 128.618357-128.618358V128.618357C1068.521739 56.888889 1011.63285 0 939.903382 0z m56.888889 704.927536c0 32.154589-24.7343 56.888889-56.888889 56.888889H128.618357c-32.154589 0-56.888889-24.7343-56.888888-56.888889V128.618357c0-32.154589 24.7343-56.888889 56.888888-56.888888H939.903382c32.154589 0 56.888889 24.7343 56.888889 56.888888v576.309179zM905.275362 949.797101h-202.821256v-19.787439c0-17.31401-14.84058-32.154589-32.154589-32.15459H378.434783c-17.31401 0-32.154589 14.84058-32.15459 32.15459v19.787439H143.458937c-19.78744 0-37.101449 17.31401-37.101449 37.10145s17.31401 37.101449 37.101449 37.101449h761.816425c19.78744 0 37.101449-17.31401 37.10145-37.101449s-17.31401-37.101449-37.10145-37.10145z" fill="#221714" p-id="3668"></path><path d="M897.855072 408.115942L635.671498 395.748792h-128.618358l9.89372 17.31401-12.36715 24.734299 24.7343 183.033817c0 7.42029-2.47343 14.84058-7.42029 19.787439l-34.62802 34.62802v2.47343l-2.473429-2.47343-2.47343 2.47343v-2.47343l-34.62802-37.101449c-4.94686-4.94686-7.42029-12.36715-7.42029-19.78744l24.7343-183.033817-12.36715-24.734299 9.89372-17.31401h-111.304348c-7.42029 0-14.84058 4.94686-17.31401 14.84058 0 0-61.835749 227.555556-54.415458 299.285024l2.473429 2.47343c14.84058 12.36715 59.362319 44.521739 59.362319 44.521739 2.47343 0 2.47343 2.47343 2.47343 2.47343h272.077295l-7.42029-232.502415c0-9.89372 7.42029-19.78744 19.78744-19.78744l220.135265-2.47343c9.89372 0 17.31401-4.94686 22.26087-12.36715l34.628019-64.309178c9.89372-4.94686 2.47343-17.31401-7.42029-17.31401zM460.057971 361.120773c81.623188 19.78744 150.879227-42.048309 150.879227-116.251208 0-66.782609-54.415459-121.198068-121.198068-121.198067-79.149758 0-138.512077 74.202899-116.251207 155.826087 12.36715 39.574879 44.521739 71.729469 86.570048 81.623188z" fill="#221714" p-id="3669"></path></svg>